<?xml version="1.0" encoding="UTF-8"?>
<svg id="Layer_1" data-name="Layer 1" xmlns="http://www.w3.org/2000/svg" xmlns:xlink="http://www.w3.org/1999/xlink" version="1.1" viewBox="0 0 1920 1920">
  <defs>
    <style>
      .cls-1, .cls-2, .cls-3 {
        fill: #d09842;
      }

      .cls-1, .cls-4, .cls-3, .cls-5 {
        stroke: #d09842;
        stroke-miterlimit: 10;
      }

      .cls-6, .cls-2, .cls-7 {
        stroke-width: 0px;
      }

      .cls-6, .cls-4, .cls-5 {
        fill: none;
      }

      .cls-4, .cls-3 {
        stroke-width: 1.13px;
      }

      .cls-7 {
        fill: url(#Motivo_nuevo);
        opacity: .36;
      }

      .cls-5 {
        stroke-width: .85px;
      }
    </style>
    <pattern id="Motivo_nuevo" data-name="Motivo nuevo" x="0" y="0" width="258" height="256" patternTransform="translate(389 537)" patternUnits="userSpaceOnUse" viewBox="0 0 258 256">
      <g>
        <rect class="cls-6" y="0" width="258" height="256"/>
        <g>
          <path class="cls-2" d="M274.6,272.18l31.72,31.72-32.18,32.18-32.18-32.18,31.72-31.72-31.72-31.72,32.18-32.18,32.18,32.18-31.72,31.72ZM245.4,240.46l28.74,28.74,28.74-28.74-28.74-28.74-28.74,28.74ZM302.88,303.9l-28.74-28.74-28.74,28.74,28.74,28.74,28.74-28.74Z"/>
          <path class="cls-1" d="M274.14,264.38l-23.92-23.92,23.92-23.92,23.92,23.92-23.92,23.92ZM251.06,240.46l23.08,23.08,23.08-23.08-23.08-23.08-23.08,23.08Z"/>
          <path class="cls-1" d="M274.14,257.1l-16.64-16.64,16.64-16.64,16.64,16.64-16.64,16.64ZM258.34,240.46l15.81,15.81,15.81-15.81-15.81-15.81-15.81,15.81Z"/>
        </g>
        <g>
          <g>
            <path class="cls-2" d="M209.96,272.18l31.72,31.72-32.18,32.18-32.18-32.18,31.72-31.72-31.72-31.72,32.18-32.18,32.18,32.18-31.72,31.72ZM180.76,240.46l28.74,28.74,28.74-28.74-28.74-28.74-28.74,28.74ZM238.24,303.9l-28.74-28.74-28.74,28.74,28.74,28.74,28.74-28.74Z"/>
            <path class="cls-1" d="M209.5,264.38l-23.92-23.92,23.92-23.92,23.92,23.92-23.92,23.92ZM186.41,240.46l23.08,23.08,23.08-23.08-23.08-23.08-23.08,23.08Z"/>
            <path class="cls-1" d="M209.5,257.1l-16.64-16.64,16.64-16.64,16.64,16.64-16.64,16.64ZM193.69,240.46l15.81,15.81,15.81-15.81-15.81-15.81-15.81,15.81Z"/>
            <path class="cls-2" d="M209.5,249.82l-9.36-9.36,9.36-9.36,9.36,9.36-9.36,9.36ZM202.02,240.46l7.47,7.47,7.47-7.47-7.47-7.47-7.47,7.47Z"/>
            <path class="cls-2" d="M145.6,272.18l31.72,31.72-32.18,32.18-32.18-32.18,31.72-31.72-31.72-31.72,32.18-32.18,32.18,32.18-31.72,31.72ZM116.4,240.46l28.74,28.74,28.74-28.74-28.74-28.74-28.74,28.74ZM173.88,303.9l-28.74-28.74-28.74,28.74,28.74,28.74,28.74-28.74Z"/>
            <path class="cls-1" d="M145.14,264.38l-23.92-23.92,23.92-23.92,23.92,23.92-23.92,23.92ZM122.06,240.46l23.08,23.08,23.08-23.08-23.08-23.08-23.08,23.08Z"/>
            <path class="cls-1" d="M145.14,257.1l-16.64-16.64,16.64-16.64,16.64,16.64-16.64,16.64ZM129.34,240.46l15.81,15.81,15.81-15.81-15.81-15.81-15.81,15.81Z"/>
            <path class="cls-2" d="M145.14,249.82l-9.36-9.36,9.36-9.36,9.36,9.36-9.36,9.36ZM137.67,240.46l7.47,7.47,7.47-7.47-7.47-7.47-7.47,7.47Z"/>
          </g>
          <g>
            <path class="cls-2" d="M176.95,250.31c12.06,0,21.87,9.81,21.87,21.87s-9.81,21.87-21.87,21.87-21.87-9.81-21.87-21.87,9.81-21.87,21.87-21.87M176.95,249c-12.8,0-23.18,10.38-23.18,23.18s10.38,23.18,23.18,23.18,23.18-10.38,23.18-23.18-10.38-23.18-23.18-23.18h0Z"/>
            <path class="cls-1" d="M176.95,256.26c8.78,0,15.92,7.14,15.92,15.92s-7.14,15.92-15.92,15.92-15.92-7.14-15.92-15.92,7.14-15.92,15.92-15.92M176.95,255.31c-9.32,0-16.87,7.55-16.87,16.87s7.55,16.87,16.87,16.87,16.87-7.55,16.87-16.87-7.55-16.87-16.87-16.87h0Z"/>
          </g>
          <g>
            <path class="cls-2" d="M241.68,250.31c12.06,0,21.87,9.81,21.87,21.87s-9.81,21.87-21.87,21.87-21.87-9.81-21.87-21.87,9.81-21.87,21.87-21.87M241.68,249c-12.8,0-23.18,10.38-23.18,23.18s10.38,23.18,23.18,23.18,23.18-10.38,23.18-23.18-10.38-23.18-23.18-23.18h0Z"/>
            <path class="cls-1" d="M241.68,256.26c8.78,0,15.92,7.14,15.92,15.92s-7.14,15.92-15.92,15.92-15.92-7.14-15.92-15.92,7.14-15.92,15.92-15.92M241.68,255.31c-9.32,0-16.87,7.55-16.87,16.87s7.55,16.87,16.87,16.87,16.87-7.55,16.87-16.87-7.55-16.87-16.87-16.87h0Z"/>
          </g>
          <g>
            <g>
              <g>
                <path class="cls-4" d="M177.32,208.28s-5.65,6.66-5.65,15.85,5.65,15.85,5.65,15.85c0,0,5.65-6.66,5.65-15.85s-5.65-15.85-5.65-15.85Z"/>
                <path class="cls-4" d="M177.32,231.75c-.86-2.16-1.53-4.76-1.53-7.62s.67-5.48,1.53-7.63c.87,2.16,1.54,4.76,1.54,7.63s-.67,5.46-1.53,7.62Z"/>
              </g>
              <g>
                <path class="cls-4" d="M177.32,176.58s-5.65,6.66-5.65,15.85,5.65,15.85,5.65,15.85c0,0,5.65-6.66,5.65-15.85s-5.65-15.85-5.65-15.85Z"/>
                <path class="cls-4" d="M177.32,200.05c-.86-2.16-1.53-4.76-1.53-7.62s.67-5.48,1.53-7.63c.87,2.16,1.54,4.76,1.54,7.63s-.67,5.46-1.53,7.62Z"/>
              </g>
            </g>
            <g>
              <g>
                <path class="cls-4" d="M177.32,208.28s6.66,5.65,15.85,5.65,15.85-5.65,15.85-5.65c0,0-6.66-5.65-15.85-5.65s-15.85,5.65-15.85,5.65Z"/>
                <path class="cls-4" d="M200.79,208.28c-2.16.86-4.76,1.53-7.62,1.53s-5.48-.67-7.63-1.53c2.16-.87,4.76-1.54,7.63-1.54s5.46.67,7.62,1.53Z"/>
              </g>
              <g>
                <path class="cls-4" d="M145.62,208.28s6.66,5.65,15.85,5.65,15.85-5.65,15.85-5.65c0,0-6.66-5.65-15.85-5.65s-15.85,5.65-15.85,5.65Z"/>
                <path class="cls-4" d="M169.09,208.28c-2.16.86-4.76,1.53-7.62,1.53s-5.48-.67-7.63-1.53c2.16-.87,4.76-1.54,7.63-1.54s5.46.67,7.62,1.53Z"/>
              </g>
            </g>
          </g>
          <g>
            <g>
              <g>
                <path class="cls-4" d="M241.68,208.28s-5.65,6.66-5.65,15.85,5.65,15.85,5.65,15.85c0,0,5.65-6.66,5.65-15.85s-5.65-15.85-5.65-15.85Z"/>
                <path class="cls-4" d="M241.68,231.75c-.86-2.16-1.53-4.76-1.53-7.62s.67-5.48,1.53-7.63c.87,2.16,1.54,4.76,1.54,7.63s-.67,5.46-1.53,7.62Z"/>
              </g>
              <g>
                <path class="cls-4" d="M241.68,176.58s-5.65,6.66-5.65,15.85,5.65,15.85,5.65,15.85c0,0,5.65-6.66,5.65-15.85s-5.65-15.85-5.65-15.85Z"/>
                <path class="cls-4" d="M241.68,200.05c-.86-2.16-1.53-4.76-1.53-7.62s.67-5.48,1.53-7.63c.87,2.16,1.54,4.76,1.54,7.63s-.67,5.46-1.53,7.62Z"/>
              </g>
            </g>
            <g>
              <g>
                <path class="cls-4" d="M241.68,208.28s6.66,5.65,15.85,5.65,15.85-5.65,15.85-5.65c0,0-6.66-5.65-15.85-5.65s-15.85,5.65-15.85,5.65Z"/>
                <path class="cls-5" d="M265.15,208.28c-2.16.86-4.76,1.53-7.62,1.53s-5.48-.67-7.63-1.53c2.16-.87,4.76-1.54,7.63-1.54s5.46.67,7.62,1.53Z"/>
              </g>
              <g>
                <path class="cls-4" d="M209.97,208.28s6.66,5.65,15.85,5.65,15.85-5.65,15.85-5.65c0,0-6.66-5.65-15.85-5.65s-15.85,5.65-15.85,5.65Z"/>
                <path class="cls-4" d="M233.44,208.28c-2.16.86-4.76,1.53-7.62,1.53s-5.48-.67-7.63-1.53c2.16-.87,4.76-1.54,7.63-1.54s5.46.67,7.62,1.53Z"/>
              </g>
            </g>
          </g>
        </g>
        <g>
          <g>
            <path class="cls-2" d="M80.96,272.18l31.72,31.72-32.18,32.18-32.18-32.18,31.72-31.72-31.72-31.72,32.18-32.18,32.18,32.18-31.72,31.72ZM51.76,240.46l28.74,28.74,28.74-28.74-28.74-28.74-28.74,28.74ZM109.24,303.9l-28.74-28.74-28.74,28.74,28.74,28.74,28.74-28.74Z"/>
            <path class="cls-1" d="M80.5,264.38l-23.92-23.92,23.92-23.92,23.92,23.92-23.92,23.92ZM57.41,240.46l23.08,23.08,23.08-23.08-23.08-23.08-23.08,23.08Z"/>
            <path class="cls-1" d="M80.5,257.1l-16.64-16.64,16.64-16.64,16.64,16.64-16.64,16.64ZM64.69,240.46l15.81,15.81,15.81-15.81-15.81-15.81-15.81,15.81Z"/>
            <path class="cls-2" d="M80.5,249.82l-9.36-9.36,9.36-9.36,9.36,9.36-9.36,9.36ZM73.02,240.46l7.47,7.47,7.47-7.47-7.47-7.47-7.47,7.47Z"/>
            <path class="cls-2" d="M16.6,272.18l31.72,31.72-32.18,32.18-32.18-32.18,31.72-31.72-31.72-31.72,32.18-32.18,32.18,32.18-31.72,31.72ZM-12.6,240.46l28.74,28.74,28.74-28.74-28.74-28.74-28.74,28.74ZM44.88,303.9l-28.74-28.74-28.74,28.74,28.74,28.74,28.74-28.74Z"/>
            <path class="cls-1" d="M16.14,264.38l-23.92-23.92,23.92-23.92,23.92,23.92-23.92,23.92ZM-6.94,240.46l23.08,23.08,23.08-23.08-23.08-23.08-23.08,23.08Z"/>
            <path class="cls-1" d="M16.14,257.1L-.5,240.46l16.64-16.64,16.64,16.64-16.64,16.64ZM.34,240.46l15.81,15.81,15.81-15.81-15.81-15.81L.34,240.46Z"/>
            <path class="cls-2" d="M16.14,249.82l-9.36-9.36,9.36-9.36,9.36,9.36-9.36,9.36ZM8.67,240.46l7.47,7.47,7.47-7.47-7.47-7.47-7.47,7.47Z"/>
          </g>
          <g>
            <path class="cls-2" d="M47.95,250.31c12.06,0,21.87,9.81,21.87,21.87s-9.81,21.87-21.87,21.87-21.87-9.81-21.87-21.87,9.81-21.87,21.87-21.87M47.95,249c-12.8,0-23.18,10.38-23.18,23.18s10.38,23.18,23.18,23.18,23.18-10.38,23.18-23.18-10.38-23.18-23.18-23.18h0Z"/>
            <path class="cls-1" d="M47.95,256.26c8.78,0,15.92,7.14,15.92,15.92s-7.14,15.92-15.92,15.92-15.92-7.14-15.92-15.92,7.14-15.92,15.92-15.92M47.95,255.31c-9.32,0-16.87,7.55-16.87,16.87s7.55,16.87,16.87,16.87,16.87-7.55,16.87-16.87-7.55-16.87-16.87-16.87h0Z"/>
          </g>
          <g>
            <path class="cls-2" d="M112.68,250.31c12.06,0,21.87,9.81,21.87,21.87s-9.81,21.87-21.87,21.87-21.87-9.81-21.87-21.87,9.81-21.87,21.87-21.87M112.68,249c-12.8,0-23.18,10.38-23.18,23.18s10.38,23.18,23.18,23.18,23.18-10.38,23.18-23.18-10.38-23.18-23.18-23.18h0Z"/>
            <path class="cls-1" d="M112.68,256.26c8.78,0,15.92,7.14,15.92,15.92s-7.14,15.92-15.92,15.92-15.92-7.14-15.92-15.92,7.14-15.92,15.92-15.92M112.68,255.31c-9.32,0-16.87,7.55-16.87,16.87s7.55,16.87,16.87,16.87,16.87-7.55,16.87-16.87-7.55-16.87-16.87-16.87h0Z"/>
          </g>
          <g>
            <g>
              <g>
                <path class="cls-4" d="M48.32,208.28s-5.65,6.66-5.65,15.85,5.65,15.85,5.65,15.85c0,0,5.65-6.66,5.65-15.85s-5.65-15.85-5.65-15.85Z"/>
                <path class="cls-4" d="M48.32,231.75c-.86-2.16-1.53-4.76-1.53-7.62s.67-5.48,1.53-7.63c.87,2.16,1.54,4.76,1.54,7.63s-.67,5.46-1.53,7.62Z"/>
              </g>
              <g>
                <path class="cls-4" d="M48.32,176.58s-5.65,6.66-5.65,15.85,5.65,15.85,5.65,15.85c0,0,5.65-6.66,5.65-15.85s-5.65-15.85-5.65-15.85Z"/>
                <path class="cls-4" d="M48.32,200.05c-.86-2.16-1.53-4.76-1.53-7.62s.67-5.48,1.53-7.63c.87,2.16,1.54,4.76,1.54,7.63s-.67,5.46-1.53,7.62Z"/>
              </g>
            </g>
            <g>
              <g>
                <path class="cls-4" d="M48.32,208.28s6.66,5.65,15.85,5.65,15.85-5.65,15.85-5.65c0,0-6.66-5.65-15.85-5.65s-15.85,5.65-15.85,5.65Z"/>
                <path class="cls-4" d="M71.79,208.28c-2.16.86-4.76,1.53-7.62,1.53s-5.48-.67-7.63-1.53c2.16-.87,4.76-1.54,7.63-1.54s5.46.67,7.62,1.53Z"/>
              </g>
              <g>
                <path class="cls-4" d="M16.62,208.28s6.66,5.65,15.85,5.65,15.85-5.65,15.85-5.65c0,0-6.66-5.65-15.85-5.65s-15.85,5.65-15.85,5.65Z"/>
                <path class="cls-4" d="M40.09,208.28c-2.16.86-4.76,1.53-7.62,1.53s-5.48-.67-7.63-1.53c2.16-.87,4.76-1.54,7.63-1.54s5.46.67,7.62,1.53Z"/>
              </g>
            </g>
          </g>
          <g>
            <g>
              <g>
                <path class="cls-4" d="M112.68,208.28s-5.65,6.66-5.65,15.85,5.65,15.85,5.65,15.85c0,0,5.65-6.66,5.65-15.85s-5.65-15.85-5.65-15.85Z"/>
                <path class="cls-4" d="M112.68,231.75c-.86-2.16-1.53-4.76-1.53-7.62s.67-5.48,1.53-7.63c.87,2.16,1.54,4.76,1.54,7.63s-.67,5.46-1.53,7.62Z"/>
              </g>
              <g>
                <path class="cls-4" d="M112.68,176.58s-5.65,6.66-5.65,15.85,5.65,15.85,5.65,15.85c0,0,5.65-6.66,5.65-15.85s-5.65-15.85-5.65-15.85Z"/>
                <path class="cls-4" d="M112.68,200.05c-.86-2.16-1.53-4.76-1.53-7.62s.67-5.48,1.53-7.63c.87,2.16,1.54,4.76,1.54,7.63s-.67,5.46-1.53,7.62Z"/>
              </g>
            </g>
            <g>
              <g>
                <path class="cls-4" d="M112.68,208.28s6.66,5.65,15.85,5.65,15.85-5.65,15.85-5.65c0,0-6.66-5.65-15.85-5.65s-15.85,5.65-15.85,5.65Z"/>
                <path class="cls-5" d="M136.15,208.28c-2.16.86-4.76,1.53-7.62,1.53s-5.48-.67-7.63-1.53c2.16-.87,4.76-1.54,7.63-1.54s5.46.67,7.62,1.53Z"/>
              </g>
              <g>
                <path class="cls-4" d="M80.97,208.28s6.66,5.65,15.85,5.65,15.85-5.65,15.85-5.65c0,0-6.66-5.65-15.85-5.65s-15.85,5.65-15.85,5.65Z"/>
                <path class="cls-4" d="M104.44,208.28c-2.16.86-4.76,1.53-7.62,1.53s-5.48-.67-7.63-1.53c2.16-.87,4.76-1.54,7.63-1.54s5.46.67,7.62,1.53Z"/>
              </g>
            </g>
          </g>
        </g>
        <g>
          <g>
            <path class="cls-2" d="M-16.32,250.31c12.06,0,21.87,9.81,21.87,21.87s-9.81,21.87-21.87,21.87-21.87-9.81-21.87-21.87,9.81-21.87,21.87-21.87M-16.32,249c-12.8,0-23.18,10.38-23.18,23.18s10.38,23.18,23.18,23.18,23.18-10.38,23.18-23.18-10.38-23.18-23.18-23.18h0Z"/>
            <path class="cls-1" d="M-16.32,256.26c8.78,0,15.92,7.14,15.92,15.92s-7.14,15.92-15.92,15.92-15.92-7.14-15.92-15.92,7.14-15.92,15.92-15.92M-16.32,255.31c-9.32,0-16.87,7.55-16.87,16.87s7.55,16.87,16.87,16.87,16.87-7.55,16.87-16.87-7.55-16.87-16.87-16.87h0Z"/>
          </g>
          <g>
            <path class="cls-4" d="M-16.32,208.28s6.66,5.65,15.85,5.65,15.85-5.65,15.85-5.65c0,0-6.66-5.65-15.85-5.65s-15.85,5.65-15.85,5.65Z"/>
            <path class="cls-5" d="M7.15,208.28c-2.16.86-4.76,1.53-7.62,1.53s-5.48-.67-7.63-1.53c2.16-.87,4.76-1.54,7.63-1.54s5.46.67,7.62,1.53Z"/>
          </g>
        </g>
        <g>
          <g>
            <path class="cls-1" d="M250.08,175.9l23.92-23.92,23.92,23.92-23.92,23.92-23.92-23.92ZM274,152.82l-23.08,23.08,23.08,23.08,23.08-23.08-23.08-23.08Z"/>
            <path class="cls-1" d="M257.36,175.9l16.64-16.64,16.64,16.64-16.64,16.64-16.64-16.64ZM274,160.1l-15.81,15.81,15.81,15.81,15.81-15.81-15.81-15.81Z"/>
            <path class="cls-1" d="M185.72,175.9l23.92-23.92,23.92,23.92-23.92,23.92-23.92-23.92ZM209.64,152.82l-23.08,23.08,23.08,23.08,23.08-23.08-23.08-23.08Z"/>
            <path class="cls-1" d="M193,175.9l16.64-16.64,16.64,16.64-16.64,16.64-16.64-16.64ZM209.64,160.1l-15.81,15.81,15.81,15.81,15.81-15.81-15.81-15.81Z"/>
            <path class="cls-2" d="M200.28,175.9l9.36-9.36,9.36,9.36-9.36,9.36-9.36-9.36ZM209.64,168.43l-7.47,7.47,7.47,7.47,7.47-7.47-7.47-7.47Z"/>
            <path class="cls-2" d="M274.46,144.18l31.72,31.72-32.18,32.18-32.18-32.18,31.72-31.72-31.72-31.72,32.18-32.18,32.18,32.18-31.72,31.72ZM245.26,112.46l28.74,28.74,28.74-28.74-28.74-28.74-28.74,28.74ZM302.74,175.9l-28.74-28.74-28.74,28.74,28.74,28.74,28.74-28.74Z"/>
            <path class="cls-1" d="M274,136.38l-23.92-23.92,23.92-23.92,23.92,23.92-23.92,23.92ZM250.91,112.46l23.08,23.08,23.08-23.08-23.08-23.08-23.08,23.08Z"/>
            <path class="cls-1" d="M274,129.1l-16.64-16.64,16.64-16.64,16.64,16.64-16.64,16.64ZM258.19,112.46l15.81,15.81,15.81-15.81-15.81-15.81-15.81,15.81Z"/>
            <path class="cls-2" d="M210.1,144.18l31.72,31.72-32.18,32.18-32.18-32.18,31.72-31.72-31.72-31.72,32.18-32.18,32.18,32.18-31.72,31.72ZM180.9,112.46l28.74,28.74,28.74-28.74-28.74-28.74-28.74,28.74ZM238.38,175.9l-28.74-28.74-28.74,28.74,28.74,28.74,28.74-28.74Z"/>
            <path class="cls-1" d="M209.64,136.38l-23.92-23.92,23.92-23.92,23.92,23.92-23.92,23.92ZM186.56,112.46l23.08,23.08,23.08-23.08-23.08-23.08-23.08,23.08Z"/>
            <path class="cls-1" d="M209.64,129.1l-16.64-16.64,16.64-16.64,16.64,16.64-16.64,16.64ZM193.84,112.46l15.81,15.81,15.81-15.81-15.81-15.81-15.81,15.81Z"/>
            <path class="cls-2" d="M209.64,121.82l-9.36-9.36,9.36-9.36,9.36,9.36-9.36,9.36ZM202.17,112.46l7.47,7.47,7.47-7.47-7.47-7.47-7.47,7.47Z"/>
          </g>
          <g>
            <path class="cls-2" d="M241.45,122.31c12.06,0,21.87,9.81,21.87,21.87s-9.81,21.87-21.87,21.87-21.87-9.81-21.87-21.87,9.81-21.87,21.87-21.87M241.45,121c-12.8,0-23.18,10.38-23.18,23.18s10.38,23.18,23.18,23.18,23.18-10.38,23.18-23.18-10.38-23.18-23.18-23.18h0Z"/>
            <path class="cls-1" d="M241.45,128.26c8.78,0,15.92,7.14,15.92,15.92s-7.14,15.92-15.92,15.92-15.92-7.14-15.92-15.92,7.14-15.92,15.92-15.92M241.45,127.31c-9.32,0-16.87,7.55-16.87,16.87s7.55,16.87,16.87,16.87,16.87-7.55,16.87-16.87-7.55-16.87-16.87-16.87h0Z"/>
            <path class="cls-3" d="M241.45,134.73c5.21,0,9.45,4.24,9.45,9.45s-4.24,9.45-9.45,9.45-9.45-4.24-9.45-9.45,4.24-9.45,9.45-9.45M241.45,134.17c-5.53,0-10.01,4.48-10.01,10.01s4.48,10.01,10.01,10.01,10.01-4.48,10.01-10.01-4.48-10.01-10.01-10.01h0Z"/>
          </g>
          <g>
            <g>
              <g>
                <path class="cls-4" d="M241.82,80.28s-5.65,6.66-5.65,15.85,5.65,15.85,5.65,15.85c0,0,5.65-6.66,5.65-15.85s-5.65-15.85-5.65-15.85Z"/>
                <path class="cls-4" d="M241.82,103.75c-.86-2.16-1.53-4.76-1.53-7.62s.67-5.48,1.53-7.63c.87,2.16,1.54,4.76,1.54,7.63s-.67,5.46-1.53,7.62Z"/>
              </g>
              <g>
                <path class="cls-4" d="M241.82,48.58s-5.65,6.66-5.65,15.85,5.65,15.85,5.65,15.85c0,0,5.65-6.66,5.65-15.85s-5.65-15.85-5.65-15.85Z"/>
                <path class="cls-4" d="M241.82,72.05c-.86-2.16-1.53-4.76-1.53-7.62s.67-5.48,1.53-7.63c.87,2.16,1.54,4.76,1.54,7.63s-.67,5.46-1.53,7.62Z"/>
              </g>
            </g>
            <g>
              <g>
                <path class="cls-4" d="M241.82,80.28s6.66,5.65,15.85,5.65,15.85-5.65,15.85-5.65c0,0-6.66-5.65-15.85-5.65s-15.85,5.65-15.85,5.65Z"/>
                <path class="cls-4" d="M265.29,80.28c-2.16.86-4.76,1.53-7.62,1.53s-5.48-.67-7.63-1.53c2.16-.87,4.76-1.54,7.63-1.54s5.46.67,7.62,1.53Z"/>
              </g>
              <g>
                <path class="cls-4" d="M210.12,80.28s6.66,5.65,15.85,5.65,15.85-5.65,15.85-5.65c0,0-6.66-5.65-15.85-5.65s-15.85,5.65-15.85,5.65Z"/>
                <path class="cls-4" d="M233.59,80.28c-2.16.86-4.76,1.53-7.62,1.53s-5.48-.67-7.63-1.53c2.16-.87,4.76-1.54,7.63-1.54s5.46.67,7.62,1.53Z"/>
              </g>
            </g>
          </g>
        </g>
        <g>
          <g>
            <path class="cls-1" d="M121.08,175.9l23.92-23.92,23.92,23.92-23.92,23.92-23.92-23.92ZM145,152.82l-23.08,23.08,23.08,23.08,23.08-23.08-23.08-23.08Z"/>
            <path class="cls-1" d="M128.36,175.9l16.64-16.64,16.64,16.64-16.64,16.64-16.64-16.64ZM145,160.1l-15.81,15.81,15.81,15.81,15.81-15.81-15.81-15.81Z"/>
            <path class="cls-2" d="M135.63,175.9l9.36-9.36,9.36,9.36-9.36,9.36-9.36-9.36ZM145,168.43l-7.47,7.47,7.47,7.47,7.47-7.47-7.47-7.47Z"/>
            <path class="cls-1" d="M56.72,175.9l23.92-23.92,23.92,23.92-23.92,23.92-23.92-23.92ZM80.64,152.82l-23.08,23.08,23.08,23.08,23.08-23.08-23.08-23.08Z"/>
            <path class="cls-1" d="M64,175.9l16.64-16.64,16.64,16.64-16.64,16.64-16.64-16.64ZM80.64,160.1l-15.81,15.81,15.81,15.81,15.81-15.81-15.81-15.81Z"/>
            <path class="cls-2" d="M71.28,175.9l9.36-9.36,9.36,9.36-9.36,9.36-9.36-9.36ZM80.64,168.43l-7.47,7.47,7.47,7.47,7.47-7.47-7.47-7.47Z"/>
            <path class="cls-2" d="M145.46,144.18l31.72,31.72-32.18,32.18-32.18-32.18,31.72-31.72-31.72-31.72,32.18-32.18,32.18,32.18-31.72,31.72ZM116.26,112.46l28.74,28.74,28.74-28.74-28.74-28.74-28.74,28.74ZM173.74,175.9l-28.74-28.74-28.74,28.74,28.74,28.74,28.74-28.74Z"/>
            <path class="cls-1" d="M145,136.38l-23.92-23.92,23.92-23.92,23.92,23.92-23.92,23.92ZM121.91,112.46l23.08,23.08,23.08-23.08-23.08-23.08-23.08,23.08Z"/>
            <path class="cls-1" d="M145,129.1l-16.64-16.64,16.64-16.64,16.64,16.64-16.64,16.64ZM129.19,112.46l15.81,15.81,15.81-15.81-15.81-15.81-15.81,15.81Z"/>
            <path class="cls-2" d="M145,121.82l-9.36-9.36,9.36-9.36,9.36,9.36-9.36,9.36ZM137.52,112.46l7.47,7.47,7.47-7.47-7.47-7.47-7.47,7.47Z"/>
            <path class="cls-2" d="M81.1,144.18l31.72,31.72-32.18,32.18-32.18-32.18,31.72-31.72-31.72-31.72,32.18-32.18,32.18,32.18-31.72,31.72ZM51.9,112.46l28.74,28.74,28.74-28.74-28.74-28.74-28.74,28.74ZM109.38,175.9l-28.74-28.74-28.74,28.74,28.74,28.74,28.74-28.74Z"/>
            <path class="cls-1" d="M80.64,136.38l-23.92-23.92,23.92-23.92,23.92,23.92-23.92,23.92ZM57.56,112.46l23.08,23.08,23.08-23.08-23.08-23.08-23.08,23.08Z"/>
            <path class="cls-1" d="M80.64,129.1l-16.64-16.64,16.64-16.64,16.64,16.64-16.64,16.64ZM64.84,112.46l15.81,15.81,15.81-15.81-15.81-15.81-15.81,15.81Z"/>
            <path class="cls-2" d="M80.64,121.82l-9.36-9.36,9.36-9.36,9.36,9.36-9.36,9.36ZM73.17,112.46l7.47,7.47,7.47-7.47-7.47-7.47-7.47,7.47Z"/>
          </g>
          <g>
            <path class="cls-2" d="M112.45,122.31c12.06,0,21.87,9.81,21.87,21.87s-9.81,21.87-21.87,21.87-21.87-9.81-21.87-21.87,9.81-21.87,21.87-21.87M112.45,121c-12.8,0-23.18,10.38-23.18,23.18s10.38,23.18,23.18,23.18,23.18-10.38,23.18-23.18-10.38-23.18-23.18-23.18h0Z"/>
            <path class="cls-1" d="M112.45,128.26c8.78,0,15.92,7.14,15.92,15.92s-7.14,15.92-15.92,15.92-15.92-7.14-15.92-15.92,7.14-15.92,15.92-15.92M112.45,127.31c-9.32,0-16.87,7.55-16.87,16.87s7.55,16.87,16.87,16.87,16.87-7.55,16.87-16.87-7.55-16.87-16.87-16.87h0Z"/>
            <path class="cls-3" d="M112.45,134.73c5.21,0,9.45,4.24,9.45,9.45s-4.24,9.45-9.45,9.45-9.45-4.24-9.45-9.45,4.24-9.45,9.45-9.45M112.45,134.17c-5.53,0-10.01,4.48-10.01,10.01s4.48,10.01,10.01,10.01,10.01-4.48,10.01-10.01-4.48-10.01-10.01-10.01h0Z"/>
          </g>
          <g>
            <path class="cls-2" d="M177.18,122.31c12.06,0,21.87,9.81,21.87,21.87s-9.81,21.87-21.87,21.87-21.87-9.81-21.87-21.87,9.81-21.87,21.87-21.87M177.18,121c-12.8,0-23.18,10.38-23.18,23.18s10.38,23.18,23.18,23.18,23.18-10.38,23.18-23.18-10.38-23.18-23.18-23.18h0Z"/>
            <path class="cls-1" d="M177.18,128.26c8.78,0,15.92,7.14,15.92,15.92s-7.14,15.92-15.92,15.92-15.92-7.14-15.92-15.92,7.14-15.92,15.92-15.92M177.18,127.31c-9.32,0-16.87,7.55-16.87,16.87s7.55,16.87,16.87,16.87,16.87-7.55,16.87-16.87-7.55-16.87-16.87-16.87h0Z"/>
            <path class="cls-3" d="M177.18,134.73c5.21,0,9.45,4.24,9.45,9.45s-4.24,9.45-9.45,9.45-9.45-4.24-9.45-9.45,4.24-9.45,9.45-9.45M177.18,134.17c-5.53,0-10.01,4.48-10.01,10.01s4.48,10.01,10.01,10.01,10.01-4.48,10.01-10.01-4.48-10.01-10.01-10.01h0Z"/>
          </g>
          <g>
            <g>
              <g>
                <path class="cls-4" d="M112.82,80.28s-5.65,6.66-5.65,15.85,5.65,15.85,5.65,15.85c0,0,5.65-6.66,5.65-15.85s-5.65-15.85-5.65-15.85Z"/>
                <path class="cls-4" d="M112.82,103.75c-.86-2.16-1.53-4.76-1.53-7.62s.67-5.48,1.53-7.63c.87,2.16,1.54,4.76,1.54,7.63s-.67,5.46-1.53,7.62Z"/>
              </g>
              <g>
                <path class="cls-4" d="M112.82,48.58s-5.65,6.66-5.65,15.85,5.65,15.85,5.65,15.85c0,0,5.65-6.66,5.65-15.85s-5.65-15.85-5.65-15.85Z"/>
                <path class="cls-4" d="M112.82,72.05c-.86-2.16-1.53-4.76-1.53-7.62s.67-5.48,1.53-7.63c.87,2.16,1.54,4.76,1.54,7.63s-.67,5.46-1.53,7.62Z"/>
              </g>
            </g>
            <g>
              <g>
                <path class="cls-4" d="M112.82,80.28s6.66,5.65,15.85,5.65,15.85-5.65,15.85-5.65c0,0-6.66-5.65-15.85-5.65s-15.85,5.65-15.85,5.65Z"/>
                <path class="cls-4" d="M136.29,80.28c-2.16.86-4.76,1.53-7.62,1.53s-5.48-.67-7.63-1.53c2.16-.87,4.76-1.54,7.63-1.54s5.46.67,7.62,1.53Z"/>
              </g>
              <g>
                <path class="cls-4" d="M81.12,80.28s6.66,5.65,15.85,5.65,15.85-5.65,15.85-5.65c0,0-6.66-5.65-15.85-5.65s-15.85,5.65-15.85,5.65Z"/>
                <path class="cls-4" d="M104.59,80.28c-2.16.86-4.76,1.53-7.62,1.53s-5.48-.67-7.63-1.53c2.16-.87,4.76-1.54,7.63-1.54s5.46.67,7.62,1.53Z"/>
              </g>
            </g>
          </g>
          <g>
            <g>
              <g>
                <path class="cls-4" d="M177.18,80.28s-5.65,6.66-5.65,15.85,5.65,15.85,5.65,15.85c0,0,5.65-6.66,5.65-15.85s-5.65-15.85-5.65-15.85Z"/>
                <path class="cls-4" d="M177.18,103.75c-.86-2.16-1.53-4.76-1.53-7.62s.67-5.48,1.53-7.63c.87,2.16,1.54,4.76,1.54,7.63s-.67,5.46-1.53,7.62Z"/>
              </g>
              <g>
                <path class="cls-4" d="M177.18,48.58s-5.65,6.66-5.65,15.85,5.65,15.85,5.65,15.85c0,0,5.65-6.66,5.65-15.85s-5.65-15.85-5.65-15.85Z"/>
                <path class="cls-4" d="M177.18,72.05c-.86-2.16-1.53-4.76-1.53-7.62s.67-5.48,1.53-7.63c.87,2.16,1.54,4.76,1.54,7.63s-.67,5.46-1.53,7.62Z"/>
              </g>
            </g>
            <g>
              <g>
                <path class="cls-4" d="M177.18,80.28s6.66,5.65,15.85,5.65,15.85-5.65,15.85-5.65c0,0-6.66-5.65-15.85-5.65s-15.85,5.65-15.85,5.65Z"/>
                <path class="cls-5" d="M200.65,80.28c-2.16.86-4.76,1.53-7.62,1.53s-5.48-.67-7.63-1.53c2.16-.87,4.76-1.54,7.63-1.54s5.46.67,7.62,1.53Z"/>
              </g>
              <g>
                <path class="cls-4" d="M145.47,80.28s6.66,5.65,15.85,5.65,15.85-5.65,15.85-5.65c0,0-6.66-5.65-15.85-5.65s-15.85,5.65-15.85,5.65Z"/>
                <path class="cls-4" d="M168.94,80.28c-2.16.86-4.76,1.53-7.62,1.53s-5.48-.67-7.63-1.53c2.16-.87,4.76-1.54,7.63-1.54s5.46.67,7.62,1.53Z"/>
              </g>
            </g>
          </g>
        </g>
        <g>
          <g>
            <path class="cls-1" d="M-7.92,175.9l23.92-23.92,23.92,23.92-23.92,23.92-23.92-23.92ZM16,152.82l-23.08,23.08,23.08,23.08,23.08-23.08-23.08-23.08Z"/>
            <path class="cls-1" d="M-.64,175.9l16.64-16.64,16.64,16.64-16.64,16.64L-.64,175.9ZM16,160.1L.19,175.9l15.81,15.81,15.81-15.81-15.81-15.81Z"/>
            <path class="cls-2" d="M6.63,175.9l9.36-9.36,9.36,9.36-9.36,9.36-9.36-9.36ZM16,168.43l-7.47,7.47,7.47,7.47,7.47-7.47-7.47-7.47Z"/>
            <path class="cls-2" d="M16.46,144.18l31.72,31.72-32.18,32.18-32.18-32.18,31.72-31.72-31.72-31.72L16,80.28l32.18,32.18-31.72,31.72ZM-12.74,112.46l28.74,28.74,28.74-28.74-28.74-28.74-28.74,28.74ZM44.74,175.9l-28.74-28.74-28.74,28.74,28.74,28.74,28.74-28.74Z"/>
            <path class="cls-1" d="M16,136.38l-23.92-23.92,23.92-23.92,23.92,23.92-23.92,23.92ZM-7.09,112.46l23.08,23.08,23.08-23.08-23.08-23.08-23.08,23.08Z"/>
            <path class="cls-1" d="M16,129.1L-.64,112.46l16.64-16.64,16.64,16.64-16.64,16.64ZM.19,112.46l15.81,15.81,15.81-15.81-15.81-15.81L.19,112.46Z"/>
            <path class="cls-2" d="M16,121.82l-9.36-9.36,9.36-9.36,9.36,9.36-9.36,9.36ZM8.52,112.46l7.47,7.47,7.47-7.47-7.47-7.47-7.47,7.47Z"/>
          </g>
          <g>
            <path class="cls-2" d="M-16.55,122.31c12.06,0,21.87,9.81,21.87,21.87s-9.81,21.87-21.87,21.87-21.87-9.81-21.87-21.87,9.81-21.87,21.87-21.87M-16.55,121c-12.8,0-23.18,10.38-23.18,23.18s10.38,23.18,23.18,23.18,23.18-10.38,23.18-23.18-10.38-23.18-23.18-23.18h0Z"/>
            <path class="cls-1" d="M-16.55,128.26c8.78,0,15.92,7.14,15.92,15.92s-7.14,15.92-15.92,15.92-15.92-7.14-15.92-15.92,7.14-15.92,15.92-15.92M-16.55,127.31c-9.32,0-16.87,7.55-16.87,16.87s7.55,16.87,16.87,16.87S.32,153.5.32,144.18s-7.55-16.87-16.87-16.87h0Z"/>
          </g>
          <g>
            <path class="cls-2" d="M48.18,122.31c12.06,0,21.87,9.81,21.87,21.87s-9.81,21.87-21.87,21.87-21.87-9.81-21.87-21.87,9.81-21.87,21.87-21.87M48.18,121c-12.8,0-23.18,10.38-23.18,23.18s10.38,23.18,23.18,23.18,23.18-10.38,23.18-23.18-10.38-23.18-23.18-23.18h0Z"/>
            <path class="cls-1" d="M48.18,128.26c8.78,0,15.92,7.14,15.92,15.92s-7.14,15.92-15.92,15.92-15.92-7.14-15.92-15.92,7.14-15.92,15.92-15.92M48.18,127.31c-9.32,0-16.87,7.55-16.87,16.87s7.55,16.87,16.87,16.87,16.87-7.55,16.87-16.87-7.55-16.87-16.87-16.87h0Z"/>
            <path class="cls-3" d="M48.18,134.73c5.21,0,9.45,4.24,9.45,9.45s-4.24,9.45-9.45,9.45-9.45-4.24-9.45-9.45,4.24-9.45,9.45-9.45M48.18,134.17c-5.53,0-10.01,4.48-10.01,10.01s4.48,10.01,10.01,10.01,10.01-4.48,10.01-10.01-4.48-10.01-10.01-10.01h0Z"/>
          </g>
          <g>
            <path class="cls-4" d="M-16.18,80.28s6.66,5.65,15.85,5.65,15.85-5.65,15.85-5.65c0,0-6.66-5.65-15.85-5.65s-15.85,5.65-15.85,5.65Z"/>
            <path class="cls-4" d="M7.29,80.28c-2.16.86-4.76,1.53-7.62,1.53s-5.48-.67-7.63-1.53c2.16-.87,4.76-1.54,7.63-1.54s5.46.67,7.62,1.53Z"/>
          </g>
          <g>
            <g>
              <g>
                <path class="cls-4" d="M48.18,80.28s-5.65,6.66-5.65,15.85,5.65,15.85,5.65,15.85c0,0,5.65-6.66,5.65-15.85s-5.65-15.85-5.65-15.85Z"/>
                <path class="cls-4" d="M48.18,103.75c-.86-2.16-1.53-4.76-1.53-7.62s.67-5.48,1.53-7.63c.87,2.16,1.54,4.76,1.54,7.63s-.67,5.46-1.53,7.62Z"/>
              </g>
              <g>
                <path class="cls-4" d="M48.18,48.58s-5.65,6.66-5.65,15.85,5.65,15.85,5.65,15.85c0,0,5.65-6.66,5.65-15.85s-5.65-15.85-5.65-15.85Z"/>
                <path class="cls-4" d="M48.18,72.05c-.86-2.16-1.53-4.76-1.53-7.62s.67-5.48,1.53-7.63c.87,2.16,1.54,4.76,1.54,7.63s-.67,5.46-1.53,7.62Z"/>
              </g>
            </g>
            <g>
              <g>
                <path class="cls-4" d="M48.18,80.28s6.66,5.65,15.85,5.65,15.85-5.65,15.85-5.65c0,0-6.66-5.65-15.85-5.65s-15.85,5.65-15.85,5.65Z"/>
                <path class="cls-5" d="M71.65,80.28c-2.16.86-4.76,1.53-7.62,1.53s-5.48-.67-7.63-1.53c2.16-.87,4.76-1.54,7.63-1.54s5.46.67,7.62,1.53Z"/>
              </g>
              <g>
                <path class="cls-4" d="M16.47,80.28s6.66,5.65,15.85,5.65,15.85-5.65,15.85-5.65c0,0-6.66-5.65-15.85-5.65s-15.85,5.65-15.85,5.65Z"/>
                <path class="cls-4" d="M39.94,80.28c-2.16.86-4.76,1.53-7.62,1.53s-5.48-.67-7.63-1.53c2.16-.87,4.76-1.54,7.63-1.54s5.46.67,7.62,1.53Z"/>
              </g>
            </g>
          </g>
        </g>
        <g>
          <path class="cls-1" d="M250.22,47.9l23.92-23.92,23.92,23.92-23.92,23.92-23.92-23.92ZM274.14,24.82l-23.08,23.08,23.08,23.08,23.08-23.08-23.08-23.08Z"/>
          <path class="cls-1" d="M257.5,47.9l16.64-16.64,16.64,16.64-16.64,16.64-16.64-16.64ZM274.14,32.1l-15.81,15.81,15.81,15.81,15.81-15.81-15.81-15.81Z"/>
          <path class="cls-2" d="M274.6,16.18l31.72,31.72-32.18,32.18-32.18-32.18,31.72-31.72-31.72-31.72,32.18-32.18,32.18,32.18-31.72,31.72ZM245.4-15.54l28.74,28.74,28.74-28.74-28.74-28.74-28.74,28.74ZM302.88,47.9l-28.74-28.74-28.74,28.74,28.74,28.74,28.74-28.74Z"/>
          <path class="cls-1" d="M274.14,8.38l-23.92-23.92,23.92-23.92,23.92,23.92-23.92,23.92ZM251.06-15.54l23.08,23.08,23.08-23.08-23.08-23.08-23.08,23.08Z"/>
          <path class="cls-1" d="M274.14,1.1l-16.64-16.64,16.64-16.64,16.64,16.64-16.64,16.64ZM258.34-15.54l15.81,15.81,15.81-15.81-15.81-15.81-15.81,15.81Z"/>
        </g>
        <g>
          <g>
            <path class="cls-1" d="M185.58,47.9l23.92-23.92,23.92,23.92-23.92,23.92-23.92-23.92ZM209.5,24.82l-23.08,23.08,23.08,23.08,23.08-23.08-23.08-23.08Z"/>
            <path class="cls-1" d="M192.86,47.9l16.64-16.64,16.64,16.64-16.64,16.64-16.64-16.64ZM209.5,32.1l-15.81,15.81,15.81,15.81,15.81-15.81-15.81-15.81Z"/>
            <path class="cls-2" d="M200.13,47.9l9.36-9.36,9.36,9.36-9.36,9.36-9.36-9.36ZM209.5,40.43l-7.47,7.47,7.47,7.47,7.47-7.47-7.47-7.47Z"/>
            <path class="cls-1" d="M121.22,47.9l23.92-23.92,23.92,23.92-23.92,23.92-23.92-23.92ZM145.14,24.82l-23.08,23.08,23.08,23.08,23.08-23.08-23.08-23.08Z"/>
            <path class="cls-1" d="M128.5,47.9l16.64-16.64,16.64,16.64-16.64,16.64-16.64-16.64ZM145.14,32.1l-15.81,15.81,15.81,15.81,15.81-15.81-15.81-15.81Z"/>
            <path class="cls-2" d="M135.78,47.9l9.36-9.36,9.36,9.36-9.36,9.36-9.36-9.36ZM145.14,40.43l-7.47,7.47,7.47,7.47,7.47-7.47-7.47-7.47Z"/>
            <path class="cls-2" d="M209.96,16.18l31.72,31.72-32.18,32.18-32.18-32.18,31.72-31.72-31.72-31.72,32.18-32.18,32.18,32.18-31.72,31.72ZM180.76-15.54l28.74,28.74,28.74-28.74-28.74-28.74-28.74,28.74ZM238.24,47.9l-28.74-28.74-28.74,28.74,28.74,28.74,28.74-28.74Z"/>
            <path class="cls-1" d="M209.5,8.38l-23.92-23.92,23.92-23.92,23.92,23.92-23.92,23.92ZM186.41-15.54l23.08,23.08,23.08-23.08-23.08-23.08-23.08,23.08Z"/>
            <path class="cls-1" d="M209.5,1.1l-16.64-16.64,16.64-16.64,16.64,16.64L209.5,1.1ZM193.69-15.54L209.5.26l15.81-15.81-15.81-15.81-15.81,15.81Z"/>
            <path class="cls-2" d="M145.6,16.18l31.72,31.72-32.18,32.18-32.18-32.18,31.72-31.72-31.72-31.72,32.18-32.18,32.18,32.18-31.72,31.72ZM116.4-15.54l28.74,28.74,28.74-28.74-28.74-28.74-28.74,28.74ZM173.88,47.9l-28.74-28.74-28.74,28.74,28.74,28.74,28.74-28.74Z"/>
            <path class="cls-1" d="M145.14,8.38l-23.92-23.92,23.92-23.92,23.92,23.92-23.92,23.92ZM122.06-15.54l23.08,23.08,23.08-23.08-23.08-23.08-23.08,23.08Z"/>
            <path class="cls-1" d="M145.14,1.1l-16.64-16.64,16.64-16.64,16.64,16.64L145.14,1.1ZM129.34-15.54L145.14.26l15.81-15.81-15.81-15.81-15.81,15.81Z"/>
          </g>
          <g>
            <path class="cls-2" d="M176.95-5.69c12.06,0,21.87,9.81,21.87,21.87s-9.81,21.87-21.87,21.87-21.87-9.81-21.87-21.87,9.81-21.87,21.87-21.87M176.95-7c-12.8,0-23.18,10.38-23.18,23.18s10.38,23.18,23.18,23.18,23.18-10.38,23.18-23.18-10.38-23.18-23.18-23.18h0Z"/>
            <path class="cls-1" d="M176.95.26c8.78,0,15.92,7.14,15.92,15.92s-7.14,15.92-15.92,15.92-15.92-7.14-15.92-15.92S168.17.26,176.95.26M176.95-.69c-9.32,0-16.87,7.55-16.87,16.87s7.55,16.87,16.87,16.87,16.87-7.55,16.87-16.87S186.27-.69,176.95-.69h0Z"/>
            <path class="cls-3" d="M176.95,6.73c5.21,0,9.45,4.24,9.45,9.45s-4.24,9.45-9.45,9.45-9.45-4.24-9.45-9.45,4.24-9.45,9.45-9.45M176.95,6.17c-5.53,0-10.01,4.48-10.01,10.01s4.48,10.01,10.01,10.01,10.01-4.48,10.01-10.01-4.48-10.01-10.01-10.01h0Z"/>
          </g>
          <g>
            <path class="cls-2" d="M241.68-5.69c12.06,0,21.87,9.81,21.87,21.87s-9.81,21.87-21.87,21.87-21.87-9.81-21.87-21.87,9.81-21.87,21.87-21.87M241.68-7c-12.8,0-23.18,10.38-23.18,23.18s10.38,23.18,23.18,23.18,23.18-10.38,23.18-23.18-10.38-23.18-23.18-23.18h0Z"/>
            <path class="cls-1" d="M241.68.26c8.78,0,15.92,7.14,15.92,15.92s-7.14,15.92-15.92,15.92-15.92-7.14-15.92-15.92S232.9.26,241.68.26M241.68-.69c-9.32,0-16.87,7.55-16.87,16.87s7.55,16.87,16.87,16.87,16.87-7.55,16.87-16.87S250.99-.69,241.68-.69h0Z"/>
            <path class="cls-3" d="M241.68,6.73c5.21,0,9.45,4.24,9.45,9.45s-4.24,9.45-9.45,9.45-9.45-4.24-9.45-9.45,4.24-9.45,9.45-9.45M241.68,6.17c-5.53,0-10.01,4.48-10.01,10.01s4.48,10.01,10.01,10.01,10.01-4.48,10.01-10.01-4.48-10.01-10.01-10.01h0Z"/>
          </g>
        </g>
        <g>
          <g>
            <path class="cls-1" d="M56.58,47.9l23.92-23.92,23.92,23.92-23.92,23.92-23.92-23.92ZM80.5,24.82l-23.08,23.08,23.08,23.08,23.08-23.08-23.08-23.08Z"/>
            <path class="cls-1" d="M63.86,47.9l16.64-16.64,16.64,16.64-16.64,16.64-16.64-16.64ZM80.5,32.1l-15.81,15.81,15.81,15.81,15.81-15.81-15.81-15.81Z"/>
            <path class="cls-2" d="M71.13,47.9l9.36-9.36,9.36,9.36-9.36,9.36-9.36-9.36ZM80.5,40.43l-7.47,7.47,7.47,7.47,7.47-7.47-7.47-7.47Z"/>
            <path class="cls-1" d="M-7.78,47.9l23.92-23.92,23.92,23.92-23.92,23.92L-7.78,47.9ZM16.14,24.82L-6.94,47.9l23.08,23.08,23.08-23.08-23.08-23.08Z"/>
            <path class="cls-1" d="M-.5,47.9l16.64-16.64,16.64,16.64-16.64,16.64L-.5,47.9ZM16.14,32.1L.34,47.9l15.81,15.81,15.81-15.81-15.81-15.81Z"/>
            <path class="cls-2" d="M6.78,47.9l9.36-9.36,9.36,9.36-9.36,9.36-9.36-9.36ZM16.14,40.43l-7.47,7.47,7.47,7.47,7.47-7.47-7.47-7.47Z"/>
            <path class="cls-2" d="M80.96,16.18l31.72,31.72-32.18,32.18-32.18-32.18,31.72-31.72-31.72-31.72,32.18-32.18L112.68-15.54l-31.72,31.72ZM51.76-15.54l28.74,28.74,28.74-28.74-28.74-28.74-28.74,28.74ZM109.24,47.9l-28.74-28.74-28.74,28.74,28.74,28.74,28.74-28.74Z"/>
            <path class="cls-1" d="M80.5,8.38l-23.92-23.92,23.92-23.92,23.92,23.92-23.92,23.92ZM57.41-15.54l23.08,23.08,23.08-23.08-23.08-23.08-23.08,23.08Z"/>
            <path class="cls-1" d="M80.5,1.1l-16.64-16.64,16.64-16.64,16.64,16.64L80.5,1.1ZM64.69-15.54L80.5.26l15.81-15.81-15.81-15.81-15.81,15.81Z"/>
            <path class="cls-2" d="M16.6,16.18l31.72,31.72-32.18,32.18L-16.04,47.9,15.68,16.18-16.04-15.54,16.14-47.72,48.32-15.54l-31.72,31.72ZM-12.6-15.54L16.14,13.2l28.74-28.74-28.74-28.74L-12.6-15.54ZM44.88,47.9l-28.74-28.74-28.74,28.74,28.74,28.74,28.74-28.74Z"/>
            <path class="cls-1" d="M16.14,8.38L-7.78-15.54l23.92-23.92,23.92,23.92L16.14,8.38ZM-6.94-15.54L16.14,7.54l23.08-23.08-23.08-23.08L-6.94-15.54Z"/>
            <path class="cls-1" d="M16.14,1.1L-.5-15.54l16.64-16.64,16.64,16.64L16.14,1.1ZM.34-15.54L16.14.26l15.81-15.81-15.81-15.81L.34-15.54Z"/>
          </g>
          <g>
            <path class="cls-2" d="M47.95-5.69c12.06,0,21.87,9.81,21.87,21.87s-9.81,21.87-21.87,21.87-21.87-9.81-21.87-21.87S35.89-5.69,47.95-5.69M47.95-7c-12.8,0-23.18,10.38-23.18,23.18s10.38,23.18,23.18,23.18,23.18-10.38,23.18-23.18S60.75-7,47.95-7h0Z"/>
            <path class="cls-1" d="M47.95.26c8.78,0,15.92,7.14,15.92,15.92s-7.14,15.92-15.92,15.92-15.92-7.14-15.92-15.92S39.17.26,47.95.26M47.95-.69c-9.32,0-16.87,7.55-16.87,16.87s7.55,16.87,16.87,16.87,16.87-7.55,16.87-16.87S57.27-.69,47.95-.69h0Z"/>
            <path class="cls-3" d="M47.95,6.73c5.21,0,9.45,4.24,9.45,9.45s-4.24,9.45-9.45,9.45-9.45-4.24-9.45-9.45,4.24-9.45,9.45-9.45M47.95,6.17c-5.53,0-10.01,4.48-10.01,10.01s4.48,10.01,10.01,10.01,10.01-4.48,10.01-10.01-4.48-10.01-10.01-10.01h0Z"/>
          </g>
          <g>
            <path class="cls-2" d="M112.68-5.69c12.06,0,21.87,9.81,21.87,21.87s-9.81,21.87-21.87,21.87-21.87-9.81-21.87-21.87,9.81-21.87,21.87-21.87M112.68-7c-12.8,0-23.18,10.38-23.18,23.18s10.38,23.18,23.18,23.18,23.18-10.38,23.18-23.18-10.38-23.18-23.18-23.18h0Z"/>
            <path class="cls-1" d="M112.68.26c8.78,0,15.92,7.14,15.92,15.92s-7.14,15.92-15.92,15.92-15.92-7.14-15.92-15.92S103.9.26,112.68.26M112.68-.69c-9.32,0-16.87,7.55-16.87,16.87s7.55,16.87,16.87,16.87,16.87-7.55,16.87-16.87S121.99-.69,112.68-.69h0Z"/>
            <path class="cls-3" d="M112.68,6.73c5.21,0,9.45,4.24,9.45,9.45s-4.24,9.45-9.45,9.45-9.45-4.24-9.45-9.45,4.24-9.45,9.45-9.45M112.68,6.17c-5.53,0-10.01,4.48-10.01,10.01s4.48,10.01,10.01,10.01,10.01-4.48,10.01-10.01-4.48-10.01-10.01-10.01h0Z"/>
          </g>
        </g>
        <g>
          <path class="cls-2" d="M-16.32-5.69C-4.26-5.69,5.55,4.12,5.55,16.18s-9.81,21.87-21.87,21.87-21.87-9.81-21.87-21.87S-28.38-5.69-16.32-5.69M-16.32-7c-12.8,0-23.18,10.38-23.18,23.18s10.38,23.18,23.18,23.18S6.86,28.98,6.86,16.18-3.52-7-16.32-7h0Z"/>
          <path class="cls-1" d="M-16.32.26C-7.55.26-.41,7.4-.41,16.18s-7.14,15.92-15.92,15.92-15.92-7.14-15.92-15.92S-25.1.26-16.32.26M-16.32-.69c-9.32,0-16.87,7.55-16.87,16.87s7.55,16.87,16.87,16.87S.55,25.5.55,16.18-7.01-.69-16.32-.69h0Z"/>
        </g>
      </g>
    </pattern>
  </defs>
  <rect class="cls-7" x="-3" width="1925" height="1349"/>
  <rect class="cls-7" x="-3" y="1349" width="1925" height="1349"/>
</svg>